<svg width="279" height="195" viewBox="0 0 279 195" fill="none" xmlns="http://www.w3.org/2000/svg">
<path opacity="0.15" d="M83.936 126.406C83.936 127.467 88.5717 128.485 96.8233 129.235C105.075 129.985 116.267 130.406 127.936 130.406C139.606 130.406 150.797 129.985 159.049 129.235C167.3 128.485 171.936 127.467 171.936 126.406C171.936 125.345 167.3 124.328 159.049 123.578C150.797 122.828 139.606 122.406 127.936 122.406C116.267 122.406 105.075 122.828 96.8233 123.578C88.5717 124.328 83.936 125.345 83.936 126.406Z" fill="#260F08"/>
<path d="M195.483 40.2197L148.336 45.9797L152.656 81.3397L197.429 75.8731C197.742 75.8368 198.044 75.7388 198.319 75.5847C198.593 75.4305 198.834 75.2233 199.028 74.9752C199.221 74.727 199.363 74.4428 199.446 74.1392C199.529 73.8355 199.55 73.5184 199.509 73.2064L195.483 40.2197Z" fill="#87635A"/>
<path d="M150.062 60.1424L197.208 54.3877L198.643 66.1664L151.502 71.9237L150.062 60.1424Z" fill="#AD8A85"/>
<path d="M161.136 52.7797C161.05 52.1561 160.722 51.5913 160.223 51.2073C159.724 50.8232 159.094 50.6504 158.469 50.7263C158.159 50.7658 157.86 50.8662 157.588 51.0217C157.317 51.1773 157.079 51.385 156.888 51.6328C156.697 51.8806 156.557 52.1637 156.476 52.4658C156.395 52.7678 156.375 53.083 156.416 53.393L156.709 55.7397C156.745 56.6346 156.443 57.5101 155.863 58.193C155.284 58.8758 154.469 59.3162 153.58 59.4268C152.692 59.5375 151.794 59.3104 151.064 58.7905C150.335 58.2707 149.828 57.4959 149.643 56.6197L148.336 45.953L162.816 29.073C182.069 28.3797 196.949 32.673 197.829 39.873L199.109 50.4063C199.132 50.5856 199.112 50.7677 199.053 50.9383C198.993 51.1089 198.895 51.2635 198.766 51.3899C198.637 51.5164 198.481 51.6114 198.309 51.6674C198.137 51.7234 197.955 51.739 197.776 51.713C196.792 51.526 195.894 51.0291 195.212 50.295C194.531 49.5609 194.103 48.6281 193.989 47.633C193.951 47.3231 193.852 47.0238 193.697 46.7522C193.543 46.4806 193.337 46.2421 193.091 46.0502C192.844 45.8582 192.562 45.7168 192.261 45.6337C191.96 45.5507 191.646 45.5278 191.336 45.5663C190.71 45.6441 190.141 45.9674 189.753 46.465C189.561 46.7114 189.42 46.9931 189.337 47.2942C189.254 47.5953 189.231 47.9098 189.269 48.2197L189.563 50.5663C189.601 50.8763 189.578 51.1907 189.495 51.4918C189.412 51.7929 189.271 52.0746 189.079 52.321C188.887 52.5674 188.648 52.7736 188.377 52.9278C188.105 53.082 187.806 53.1812 187.496 53.2197C187.186 53.2582 186.872 53.2353 186.57 53.1523C186.269 53.0693 185.988 52.9278 185.741 52.7359C185.495 52.544 185.289 52.3054 185.135 52.0338C184.98 51.7622 184.881 51.4629 184.843 51.153C184.806 50.8431 184.708 50.5435 184.556 50.2712C184.403 49.9989 184.199 49.7594 183.953 49.5663C183.708 49.3731 183.427 49.2301 183.127 49.1455C182.827 49.0609 182.513 49.0362 182.203 49.073C181.893 49.1098 181.593 49.2072 181.321 49.3598C181.049 49.5124 180.809 49.7171 180.616 49.9622C180.226 50.4573 180.048 51.0871 180.123 51.713L180.416 54.0863C180.568 55.3382 180.217 56.5991 179.439 57.5918C178.661 58.5845 177.521 59.2276 176.269 59.3797C175.017 59.5317 173.756 59.1803 172.764 58.4026C171.771 57.625 171.128 56.4848 170.976 55.233L170.549 51.6863C170.513 51.3746 170.415 51.0733 170.261 50.8002C170.106 50.5271 169.898 50.2877 169.65 50.0962C169.401 49.9048 169.117 49.7652 168.813 49.6856C168.51 49.606 168.193 49.5882 167.883 49.633C167.254 49.713 166.683 50.0382 166.293 50.5377C165.903 51.0373 165.727 51.6706 165.803 52.2997L165.963 53.473C166.04 54.0989 165.866 54.7301 165.479 55.2277C165.091 55.7253 164.522 56.0486 163.896 56.1263C163.27 56.2041 162.639 56.0301 162.141 55.6425C161.644 55.255 161.32 54.6856 161.243 54.0597L161.136 52.7797Z" fill="#CAAFA7"/>
<path d="M156.576 44.9662L190.763 40.8062" stroke="white" stroke-width="0.973958" stroke-linecap="round" stroke-linejoin="round"/>
<path d="M82.9492 67.793C81.9892 76.273 99.6958 85.233 122.416 87.7396C145.136 90.2463 164.496 85.5796 165.456 77.073L161.509 112.566C160.549 121.046 141.269 125.9 118.469 123.233C95.6692 120.566 77.9625 111.74 78.9225 103.18L82.9492 67.793Z" fill="#87635A"/>
<path d="M81.3227 81.9531C80.3627 90.4065 98.0694 99.3931 120.896 101.98C143.723 104.566 162.949 99.7931 163.909 91.3131L162.576 103.1C161.616 111.58 142.336 116.433 119.536 113.766C96.7361 111.1 79.0294 102.22 79.9894 93.7398L81.3227 81.9531Z" fill="#AD8A85"/>
<path d="M136.336 58.7795C133.029 58.1128 129.563 57.5528 125.989 57.1528C101.989 54.4861 81.5359 59.0461 80.6559 67.5261L78.5226 86.4061C78.47 86.8701 78.5094 87.3399 78.6385 87.7887C78.7675 88.2375 78.9837 88.6565 79.2746 89.0217C79.8622 89.7594 80.7188 90.2334 81.6559 90.3395C82.593 90.4455 83.5339 90.175 84.2715 89.5874C85.0091 88.9998 85.4831 88.1432 85.5892 87.2061C85.6201 86.7233 85.7488 86.2518 85.9673 85.8202C86.1859 85.3885 86.4898 85.0058 86.8607 84.6951C87.2316 84.3844 87.6617 84.1523 88.125 84.0128C88.5882 83.8733 89.075 83.8293 89.5557 83.8836C90.0365 83.9378 90.5012 84.0891 90.9218 84.3283C91.3423 84.5674 91.71 84.8895 92.0023 85.275C92.2947 85.6605 92.5057 86.1013 92.6227 86.5708C92.7396 87.0402 92.76 87.5285 92.6826 88.0061L91.8826 95.0994C91.7058 96.6625 92.1571 98.2317 93.1373 99.4619C94.1175 100.692 95.5462 101.483 97.1092 101.659C98.6722 101.836 100.241 101.385 101.472 100.405C102.702 99.4245 103.492 97.9958 103.669 96.4328C103.775 95.4957 104.249 94.6391 104.987 94.0515C105.725 93.4639 106.665 93.1934 107.603 93.2994C108.54 93.4055 109.396 93.8795 109.984 94.6172C110.571 95.3548 110.842 96.2957 110.736 97.2328L110.469 99.5794C110.398 100.501 110.686 101.413 111.273 102.127C111.86 102.84 112.701 103.298 113.618 103.405C114.536 103.512 115.459 103.259 116.195 102.7C116.93 102.141 117.42 101.319 117.563 100.406L117.696 99.2061C117.876 97.6431 118.67 96.2158 119.903 95.2381C121.136 94.2604 122.706 93.8124 124.269 93.9928C125.832 94.1731 127.26 94.967 128.237 96.1997C129.215 97.4325 129.663 99.0031 129.483 100.566L129.083 104.086C129.011 105.007 129.299 105.92 129.886 106.633C130.473 107.347 131.314 107.805 132.232 107.912C133.149 108.019 134.073 107.766 134.808 107.207C135.543 106.648 136.034 105.826 136.176 104.913L137.109 96.6461C137.173 96.3585 137.343 96.1056 137.586 95.9376C137.828 95.7696 138.124 95.6989 138.416 95.7395C138.572 95.7524 138.723 95.7971 138.861 95.8708C138.999 95.9445 139.121 96.0457 139.218 96.1681C139.316 96.2905 139.387 96.4315 139.428 96.5825C139.469 96.7335 139.478 96.8913 139.456 97.0461C139.327 98.5881 139.804 100.12 140.786 101.315C141.768 102.511 143.177 103.277 144.715 103.451C146.253 103.624 147.797 103.192 149.021 102.245C150.245 101.298 151.051 99.9113 151.269 98.3795L151.803 93.6595C151.909 92.7224 152.383 91.8658 153.12 91.2782C153.858 90.6906 154.799 90.42 155.736 90.5261C156.673 90.6322 157.53 91.1062 158.117 91.8439C158.705 92.5815 158.975 93.5224 158.869 94.4595C158.798 95.3805 159.086 96.2935 159.673 97.0067C160.26 97.72 161.101 98.1782 162.018 98.2851C162.936 98.392 163.859 98.1395 164.595 97.5803C165.33 97.0212 165.82 96.1989 165.963 95.2861L167.749 79.7395C167.79 79.4274 167.769 79.1103 167.686 78.8067C167.603 78.503 167.461 78.2188 167.267 77.9707C167.074 77.7225 166.833 77.5153 166.559 77.3612C166.284 77.207 165.982 77.109 165.669 77.0728L119.643 71.7395L136.336 58.7795Z" fill="#CAAFA7"/>
<path d="M134.656 73.6598L136.336 58.7798L119.509 71.9531L134.656 73.6598Z" fill="#87635A"/>
<path d="M85.2959 68.0596C84.6292 73.9262 101.536 80.6462 123.029 83.0996C137.803 84.7796 150.896 84.0062 157.883 81.4462" stroke="white" stroke-width="0.973958" stroke-linecap="round" stroke-linejoin="round"/>
<path d="M33.6977 174V170.136L29.8057 164.2H31.7517L34.5797 168.68L37.4357 164.2H39.2697L35.3777 170.136V174H33.6977ZM41.9194 174.126C41.2567 174.126 40.6547 173.967 40.1134 173.65C39.5814 173.333 39.1614 172.903 38.8534 172.362C38.5454 171.811 38.3914 171.191 38.3914 170.5C38.3914 169.809 38.5454 169.193 38.8534 168.652C39.1614 168.101 39.5814 167.667 40.1134 167.35C40.6454 167.033 41.2474 166.874 41.9194 166.874C42.5914 166.874 43.1887 167.033 43.7114 167.35C44.2434 167.667 44.6634 168.101 44.9714 168.652C45.2794 169.193 45.4334 169.809 45.4334 170.5C45.4334 171.191 45.2794 171.811 44.9714 172.362C44.6634 172.903 44.2434 173.333 43.7114 173.65C43.1887 173.967 42.5914 174.126 41.9194 174.126ZM41.9194 172.782C42.3021 172.782 42.6381 172.684 42.9274 172.488C43.2261 172.292 43.4594 172.021 43.6274 171.676C43.7954 171.321 43.8794 170.929 43.8794 170.5C43.8794 170.061 43.7954 169.674 43.6274 169.338C43.4594 168.993 43.2261 168.722 42.9274 168.526C42.6381 168.321 42.3021 168.218 41.9194 168.218C41.5367 168.218 41.1961 168.321 40.8974 168.526C40.5987 168.722 40.3654 168.993 40.1974 169.338C40.0294 169.674 39.9454 170.061 39.9454 170.5C39.9454 170.939 40.0294 171.331 40.1974 171.676C40.3654 172.021 40.5987 172.292 40.8974 172.488C41.1961 172.684 41.5367 172.782 41.9194 172.782ZM49.4609 174.112C48.9756 174.112 48.5509 174.005 48.1869 173.79C47.8229 173.575 47.5336 173.281 47.3189 172.908C47.1136 172.535 47.0109 172.101 47.0109 171.606V166.986H48.6069V171.144C48.6069 171.657 48.7422 172.068 49.0129 172.376C49.2929 172.684 49.6709 172.838 50.1469 172.838C50.4642 172.838 50.7489 172.768 51.0009 172.628C51.2622 172.488 51.4862 172.278 51.6729 171.998V166.986H53.2549V174H51.6729V172.866C51.4022 173.277 51.0802 173.589 50.7069 173.804C50.3336 174.009 49.9182 174.112 49.4609 174.112ZM55.2154 174V166.986H56.7974V168.498C57.0027 167.966 57.2687 167.56 57.5954 167.28C57.922 167 58.3 166.86 58.7294 166.86C58.8694 166.869 58.9907 166.883 59.0934 166.902C59.196 166.911 59.3034 166.944 59.4154 167V168.386C59.294 168.33 59.154 168.288 58.9954 168.26C58.846 168.232 58.6967 168.218 58.5474 168.218C58.1647 168.218 57.8194 168.321 57.5114 168.526C57.2127 168.731 56.9747 169.016 56.7974 169.38V174H55.2154ZM65.984 174.126C65.4986 174.126 65.0646 174.037 64.682 173.86C64.3086 173.673 64.0146 173.421 63.8 173.104C63.5946 172.777 63.492 172.404 63.492 171.984C63.492 171.564 63.5993 171.2 63.814 170.892C64.038 170.584 64.3506 170.346 64.752 170.178C65.1533 170.01 65.6293 169.926 66.18 169.926C66.5066 169.926 66.8286 169.963 67.146 170.038C67.4633 170.103 67.7713 170.215 68.07 170.374V169.59C68.07 169.123 67.9346 168.773 67.664 168.54C67.4026 168.307 67.0013 168.19 66.46 168.19C66.1706 168.19 65.858 168.237 65.522 168.33C65.1953 168.414 64.8266 168.549 64.416 168.736L63.856 167.588C64.8826 167.112 65.8533 166.874 66.768 166.874C67.6826 166.874 68.3873 167.098 68.882 167.546C69.386 167.985 69.638 168.61 69.638 169.422V174H68.07V173.272C67.7713 173.561 67.4493 173.776 67.104 173.916C66.7586 174.056 66.3853 174.126 65.984 174.126ZM64.976 171.956C64.976 172.283 65.1066 172.539 65.368 172.726C65.6293 172.913 65.9793 173.006 66.418 173.006C66.7353 173.006 67.0293 172.959 67.3 172.866C67.58 172.763 67.8366 172.614 68.07 172.418V171.284C67.8273 171.172 67.5753 171.088 67.314 171.032C67.0526 170.976 66.768 170.948 66.46 170.948C66.0026 170.948 65.6386 171.037 65.368 171.214C65.1066 171.391 64.976 171.639 64.976 171.956ZM74.3952 174.07C73.8072 174.07 73.2752 173.911 72.7992 173.594C72.3232 173.267 71.9406 172.838 71.6512 172.306C71.3712 171.765 71.2312 171.163 71.2312 170.5C71.2312 169.828 71.3759 169.226 71.6652 168.694C71.9546 168.153 72.3466 167.723 72.8412 167.406C73.3452 167.089 73.9006 166.93 74.5072 166.93C74.9086 166.93 75.2819 167.009 75.6272 167.168C75.9819 167.317 76.2899 167.541 76.5512 167.84V163.962L78.1332 163.682V174H76.5652V173.076C76.3132 173.393 76.0006 173.641 75.6272 173.818C75.2539 173.986 74.8432 174.07 74.3952 174.07ZM74.8852 172.726C75.2212 172.726 75.5339 172.661 75.8232 172.53C76.1126 172.399 76.3552 172.213 76.5512 171.97V169.016C76.3459 168.773 76.0986 168.587 75.8092 168.456C75.5199 168.325 75.2119 168.26 74.8852 168.26C74.4839 168.26 74.1246 168.358 73.8072 168.554C73.4992 168.741 73.2519 169.002 73.0652 169.338C72.8879 169.674 72.7992 170.061 72.7992 170.5C72.7992 170.92 72.8879 171.303 73.0652 171.648C73.2519 171.984 73.4992 172.25 73.8072 172.446C74.1246 172.633 74.4839 172.726 74.8852 172.726ZM82.9402 174.07C82.3522 174.07 81.8202 173.911 81.3442 173.594C80.8682 173.267 80.4855 172.838 80.1962 172.306C79.9162 171.765 79.7762 171.163 79.7762 170.5C79.7762 169.828 79.9208 169.226 80.2102 168.694C80.4995 168.153 80.8915 167.723 81.3862 167.406C81.8902 167.089 82.4455 166.93 83.0522 166.93C83.4535 166.93 83.8268 167.009 84.1722 167.168C84.5268 167.317 84.8348 167.541 85.0962 167.84V163.962L86.6782 163.682V174H85.1102V173.076C84.8582 173.393 84.5455 173.641 84.1722 173.818C83.7988 173.986 83.3882 174.07 82.9402 174.07ZM83.4302 172.726C83.7662 172.726 84.0788 172.661 84.3682 172.53C84.6575 172.399 84.9002 172.213 85.0962 171.97V169.016C84.8908 168.773 84.6435 168.587 84.3542 168.456C84.0648 168.325 83.7568 168.26 83.4302 168.26C83.0288 168.26 82.6695 168.358 82.3522 168.554C82.0442 168.741 81.7968 169.002 81.6102 169.338C81.4328 169.674 81.3442 170.061 81.3442 170.5C81.3442 170.92 81.4328 171.303 81.6102 171.648C81.7968 171.984 82.0442 172.25 82.3522 172.446C82.6695 172.633 83.0288 172.726 83.4302 172.726ZM91.9051 174.14C91.2331 174.14 90.6264 173.981 90.0851 173.664C89.5438 173.337 89.1144 172.903 88.7971 172.362C88.4798 171.811 88.3211 171.191 88.3211 170.5C88.3211 169.809 88.4704 169.193 88.7691 168.652C89.0678 168.111 89.4738 167.681 89.9871 167.364C90.5098 167.037 91.0884 166.874 91.7231 166.874C92.3764 166.874 92.9504 167.033 93.4451 167.35C93.9491 167.667 94.3411 168.097 94.6211 168.638C94.9104 169.179 95.0551 169.8 95.0551 170.5V170.878H89.8751C89.9311 171.261 90.0524 171.601 90.2391 171.9C90.4351 172.189 90.6824 172.418 90.9811 172.586C91.2891 172.754 91.6204 172.838 91.9751 172.838C92.3018 172.838 92.6098 172.782 92.8991 172.67C93.1978 172.549 93.4451 172.385 93.6411 172.18L94.6771 173.118C94.2478 173.473 93.8091 173.734 93.3611 173.902C92.9224 174.061 92.4371 174.14 91.9051 174.14ZM89.8891 169.898H93.5571C93.5011 169.562 93.3844 169.263 93.2071 169.002C93.0391 168.741 92.8244 168.535 92.5631 168.386C92.3111 168.237 92.0311 168.162 91.7231 168.162C91.4151 168.162 91.1304 168.237 90.8691 168.386C90.6171 168.526 90.4071 168.727 90.2391 168.988C90.0711 169.249 89.9544 169.553 89.8891 169.898ZM99.5378 174.07C98.9498 174.07 98.4178 173.911 97.9418 173.594C97.4658 173.267 97.0832 172.838 96.7938 172.306C96.5138 171.765 96.3738 171.163 96.3738 170.5C96.3738 169.828 96.5185 169.226 96.8078 168.694C97.0972 168.153 97.4892 167.723 97.9838 167.406C98.4878 167.089 99.0432 166.93 99.6498 166.93C100.051 166.93 100.424 167.009 100.77 167.168C101.124 167.317 101.432 167.541 101.694 167.84V163.962L103.276 163.682V174H101.708V173.076C101.456 173.393 101.143 173.641 100.77 173.818C100.396 173.986 99.9858 174.07 99.5378 174.07ZM100.028 172.726C100.364 172.726 100.676 172.661 100.966 172.53C101.255 172.399 101.498 172.213 101.694 171.97V169.016C101.488 168.773 101.241 168.587 100.952 168.456C100.662 168.325 100.354 168.26 100.028 168.26C99.6265 168.26 99.2672 168.358 98.9498 168.554C98.6418 168.741 98.3945 169.002 98.2078 169.338C98.0305 169.674 97.9418 170.061 97.9418 170.5C97.9418 170.92 98.0305 171.303 98.2078 171.648C98.3945 171.984 98.6418 172.25 98.9498 172.446C99.2672 172.633 99.6265 172.726 100.028 172.726ZM108.371 174V166.986H109.953V174H108.371ZM109.169 165.558C108.899 165.558 108.665 165.465 108.469 165.278C108.283 165.082 108.189 164.853 108.189 164.592C108.189 164.321 108.283 164.093 108.469 163.906C108.665 163.71 108.899 163.612 109.169 163.612C109.44 163.612 109.669 163.71 109.855 163.906C110.051 164.093 110.149 164.317 110.149 164.578C110.149 164.849 110.051 165.082 109.855 165.278C109.669 165.465 109.44 165.558 109.169 165.558ZM114.937 174.14C114.227 174.14 113.691 173.977 113.327 173.65C112.963 173.314 112.781 172.824 112.781 172.18V168.246H111.381V166.986H112.781V165.054L114.363 164.718V166.986H116.323V168.246H114.363V171.83C114.363 172.175 114.437 172.423 114.587 172.572C114.745 172.712 114.997 172.782 115.343 172.782C115.501 172.782 115.646 172.773 115.777 172.754C115.917 172.726 116.089 172.679 116.295 172.614V173.944C116.099 174.009 115.875 174.056 115.623 174.084C115.38 174.121 115.151 174.14 114.937 174.14ZM120.862 174.14C120.19 174.14 119.583 173.981 119.042 173.664C118.501 173.337 118.071 172.903 117.754 172.362C117.437 171.811 117.278 171.191 117.278 170.5C117.278 169.809 117.427 169.193 117.726 168.652C118.025 168.111 118.431 167.681 118.944 167.364C119.467 167.037 120.045 166.874 120.68 166.874C121.333 166.874 121.907 167.033 122.402 167.35C122.906 167.667 123.298 168.097 123.578 168.638C123.867 169.179 124.012 169.8 124.012 170.5V170.878H118.832C118.888 171.261 119.009 171.601 119.196 171.9C119.392 172.189 119.639 172.418 119.938 172.586C120.246 172.754 120.577 172.838 120.932 172.838C121.259 172.838 121.567 172.782 121.856 172.67C122.155 172.549 122.402 172.385 122.598 172.18L123.634 173.118C123.205 173.473 122.766 173.734 122.318 173.902C121.879 174.061 121.394 174.14 120.862 174.14ZM118.846 169.898H122.514C122.458 169.562 122.341 169.263 122.164 169.002C121.996 168.741 121.781 168.535 121.52 168.386C121.268 168.237 120.988 168.162 120.68 168.162C120.372 168.162 120.087 168.237 119.826 168.386C119.574 168.526 119.364 168.727 119.196 168.988C119.028 169.249 118.911 169.553 118.846 169.898ZM125.626 174V166.986H127.208V168.092C127.469 167.691 127.772 167.387 128.118 167.182C128.472 166.977 128.864 166.874 129.294 166.874C129.77 166.874 130.185 166.995 130.54 167.238C130.904 167.481 131.174 167.807 131.352 168.218C131.632 167.779 131.963 167.448 132.346 167.224C132.738 166.991 133.181 166.874 133.676 166.874C134.133 166.874 134.534 166.981 134.88 167.196C135.225 167.411 135.491 167.709 135.678 168.092C135.874 168.475 135.972 168.913 135.972 169.408V174H134.39V169.758C134.39 169.263 134.264 168.871 134.012 168.582C133.76 168.293 133.414 168.148 132.976 168.148C132.696 168.148 132.434 168.218 132.192 168.358C131.958 168.498 131.753 168.708 131.576 168.988C131.585 169.053 131.59 169.123 131.59 169.198C131.599 169.263 131.604 169.333 131.604 169.408V174H130.008V169.758C130.008 169.263 129.882 168.871 129.63 168.582C129.378 168.293 129.032 168.148 128.594 168.148C128.024 168.148 127.562 168.419 127.208 168.96V174H125.626ZM140.269 174.14C139.672 174.14 139.112 174.061 138.589 173.902C138.076 173.734 137.633 173.496 137.259 173.188L138.001 172.138C138.468 172.427 138.869 172.633 139.205 172.754C139.551 172.875 139.901 172.936 140.255 172.936C140.675 172.936 141.016 172.847 141.277 172.67C141.539 172.493 141.669 172.264 141.669 171.984C141.669 171.769 141.59 171.601 141.431 171.48C141.282 171.349 141.035 171.251 140.689 171.186L139.457 170.976C138.776 170.845 138.267 170.621 137.931 170.304C137.595 169.987 137.427 169.567 137.427 169.044C137.427 168.605 137.539 168.227 137.763 167.91C137.997 167.583 138.314 167.331 138.715 167.154C139.126 166.967 139.602 166.874 140.143 166.874C140.629 166.874 141.1 166.944 141.557 167.084C142.015 167.224 142.463 167.434 142.901 167.714L142.159 168.764C141.805 168.531 141.45 168.363 141.095 168.26C140.75 168.148 140.4 168.092 140.045 168.092C139.681 168.092 139.387 168.167 139.163 168.316C138.949 168.456 138.841 168.652 138.841 168.904C138.841 169.128 138.911 169.301 139.051 169.422C139.201 169.534 139.457 169.618 139.821 169.674L141.067 169.912C141.767 170.033 142.285 170.257 142.621 170.584C142.967 170.901 143.139 171.326 143.139 171.858C143.139 172.287 143.013 172.675 142.761 173.02C142.509 173.365 142.169 173.641 141.739 173.846C141.31 174.042 140.82 174.14 140.269 174.14ZM148.965 174L147.075 166.986H148.587L149.819 171.928L151.275 166.986H152.605L154.047 171.928L155.279 166.986H156.749L154.859 174H153.347L151.919 169.058L150.505 174H148.965ZM158.041 174V166.986H159.623V174H158.041ZM158.839 165.558C158.569 165.558 158.335 165.465 158.139 165.278C157.953 165.082 157.859 164.853 157.859 164.592C157.859 164.321 157.953 164.093 158.139 163.906C158.335 163.71 158.569 163.612 158.839 163.612C159.11 163.612 159.339 163.71 159.525 163.906C159.721 164.093 159.819 164.317 159.819 164.578C159.819 164.849 159.721 165.082 159.525 165.278C159.339 165.465 159.11 165.558 158.839 165.558ZM161.583 174V163.962L163.165 163.682V174H161.583ZM165.11 174V163.962L166.692 163.682V174H165.11ZM173.91 174.126C173.424 174.126 172.99 174.037 172.608 173.86C172.234 173.673 171.94 173.421 171.726 173.104C171.52 172.777 171.418 172.404 171.418 171.984C171.418 171.564 171.525 171.2 171.74 170.892C171.964 170.584 172.276 170.346 172.678 170.178C173.079 170.01 173.555 169.926 174.106 169.926C174.432 169.926 174.754 169.963 175.072 170.038C175.389 170.103 175.697 170.215 175.996 170.374V169.59C175.996 169.123 175.86 168.773 175.59 168.54C175.328 168.307 174.927 168.19 174.386 168.19C174.096 168.19 173.784 168.237 173.448 168.33C173.121 168.414 172.752 168.549 172.342 168.736L171.782 167.588C172.808 167.112 173.779 166.874 174.694 166.874C175.608 166.874 176.313 167.098 176.808 167.546C177.312 167.985 177.564 168.61 177.564 169.422V174H175.996V173.272C175.697 173.561 175.375 173.776 175.03 173.916C174.684 174.056 174.311 174.126 173.91 174.126ZM172.902 171.956C172.902 172.283 173.032 172.539 173.294 172.726C173.555 172.913 173.905 173.006 174.344 173.006C174.661 173.006 174.955 172.959 175.226 172.866C175.506 172.763 175.762 172.614 175.996 172.418V171.284C175.753 171.172 175.501 171.088 175.24 171.032C174.978 170.976 174.694 170.948 174.386 170.948C173.928 170.948 173.564 171.037 173.294 171.214C173.032 171.391 172.902 171.639 172.902 171.956ZM179.479 176.926V166.986H181.033V167.98C181.294 167.644 181.612 167.387 181.985 167.21C182.368 167.023 182.778 166.93 183.217 166.93C183.814 166.93 184.351 167.089 184.827 167.406C185.303 167.723 185.681 168.153 185.961 168.694C186.25 169.235 186.395 169.837 186.395 170.5C186.395 171.163 186.246 171.765 185.947 172.306C185.658 172.847 185.266 173.277 184.771 173.594C184.276 173.911 183.726 174.07 183.119 174.07C182.699 174.07 182.316 173.995 181.971 173.846C181.626 173.687 181.322 173.463 181.061 173.174V176.926H179.479ZM182.741 172.74C183.142 172.74 183.497 172.647 183.805 172.46C184.122 172.264 184.37 171.998 184.547 171.662C184.734 171.317 184.827 170.929 184.827 170.5C184.827 170.071 184.734 169.688 184.547 169.352C184.37 169.016 184.122 168.75 183.805 168.554C183.497 168.358 183.142 168.26 182.741 168.26C182.396 168.26 182.078 168.33 181.789 168.47C181.509 168.601 181.266 168.792 181.061 169.044V171.97C181.266 172.213 181.514 172.404 181.803 172.544C182.092 172.675 182.405 172.74 182.741 172.74ZM188.038 176.926V166.986H189.592V167.98C189.853 167.644 190.17 167.387 190.544 167.21C190.926 167.023 191.337 166.93 191.776 166.93C192.373 166.93 192.91 167.089 193.386 167.406C193.862 167.723 194.24 168.153 194.52 168.694C194.809 169.235 194.954 169.837 194.954 170.5C194.954 171.163 194.804 171.765 194.506 172.306C194.216 172.847 193.824 173.277 193.33 173.594C192.835 173.911 192.284 174.07 191.678 174.07C191.258 174.07 190.875 173.995 190.53 173.846C190.184 173.687 189.881 173.463 189.62 173.174V176.926H188.038ZM191.3 172.74C191.701 172.74 192.056 172.647 192.364 172.46C192.681 172.264 192.928 171.998 193.106 171.662C193.292 171.317 193.386 170.929 193.386 170.5C193.386 170.071 193.292 169.688 193.106 169.352C192.928 169.016 192.681 168.75 192.364 168.554C192.056 168.358 191.701 168.26 191.3 168.26C190.954 168.26 190.637 168.33 190.348 168.47C190.068 168.601 189.825 168.792 189.62 169.044V171.97C189.825 172.213 190.072 172.404 190.362 172.544C190.651 172.675 190.964 172.74 191.3 172.74ZM199.858 174.14C199.186 174.14 198.58 173.981 198.038 173.664C197.497 173.337 197.068 172.903 196.75 172.362C196.433 171.811 196.274 171.191 196.274 170.5C196.274 169.809 196.424 169.193 196.722 168.652C197.021 168.111 197.427 167.681 197.94 167.364C198.463 167.037 199.042 166.874 199.676 166.874C200.33 166.874 200.904 167.033 201.398 167.35C201.902 167.667 202.294 168.097 202.574 168.638C202.864 169.179 203.008 169.8 203.008 170.5V170.878H197.828C197.884 171.261 198.006 171.601 198.192 171.9C198.388 172.189 198.636 172.418 198.934 172.586C199.242 172.754 199.574 172.838 199.928 172.838C200.255 172.838 200.563 172.782 200.852 172.67C201.151 172.549 201.398 172.385 201.594 172.18L202.63 173.118C202.201 173.473 201.762 173.734 201.314 173.902C200.876 174.061 200.39 174.14 199.858 174.14ZM197.842 169.898H201.51C201.454 169.562 201.338 169.263 201.16 169.002C200.992 168.741 200.778 168.535 200.516 168.386C200.264 168.237 199.984 168.162 199.676 168.162C199.368 168.162 199.084 168.237 198.822 168.386C198.57 168.526 198.36 168.727 198.192 168.988C198.024 169.249 197.908 169.553 197.842 169.898ZM206.681 174.126C206.196 174.126 205.762 174.037 205.379 173.86C205.006 173.673 204.712 173.421 204.497 173.104C204.292 172.777 204.189 172.404 204.189 171.984C204.189 171.564 204.297 171.2 204.511 170.892C204.735 170.584 205.048 170.346 205.449 170.178C205.851 170.01 206.327 169.926 206.877 169.926C207.204 169.926 207.526 169.963 207.843 170.038C208.161 170.103 208.469 170.215 208.767 170.374V169.59C208.767 169.123 208.632 168.773 208.361 168.54C208.1 168.307 207.699 168.19 207.157 168.19C206.868 168.19 206.555 168.237 206.219 168.33C205.893 168.414 205.524 168.549 205.113 168.736L204.553 167.588C205.58 167.112 206.551 166.874 207.465 166.874C208.38 166.874 209.085 167.098 209.579 167.546C210.083 167.985 210.335 168.61 210.335 169.422V174H208.767V173.272C208.469 173.561 208.147 173.776 207.801 173.916C207.456 174.056 207.083 174.126 206.681 174.126ZM205.673 171.956C205.673 172.283 205.804 172.539 206.065 172.726C206.327 172.913 206.677 173.006 207.115 173.006C207.433 173.006 207.727 172.959 207.997 172.866C208.277 172.763 208.534 172.614 208.767 172.418V171.284C208.525 171.172 208.273 171.088 208.011 171.032C207.75 170.976 207.465 170.948 207.157 170.948C206.7 170.948 206.336 171.037 206.065 171.214C205.804 171.391 205.673 171.639 205.673 171.956ZM212.251 174V166.986H213.833V168.498C214.038 167.966 214.304 167.56 214.631 167.28C214.957 167 215.335 166.86 215.765 166.86C215.905 166.869 216.026 166.883 216.129 166.902C216.231 166.911 216.339 166.944 216.451 167V168.386C216.329 168.33 216.189 168.288 216.031 168.26C215.881 168.232 215.732 168.218 215.583 168.218C215.2 168.218 214.855 168.321 214.547 168.526C214.248 168.731 214.01 169.016 213.833 169.38V174H212.251ZM220.891 174V163.962L222.473 163.682V168.134C222.744 167.714 223.066 167.401 223.439 167.196C223.812 166.981 224.232 166.874 224.699 166.874C225.175 166.874 225.595 166.981 225.959 167.196C226.323 167.401 226.608 167.691 226.813 168.064C227.028 168.437 227.135 168.876 227.135 169.38V174H225.539V169.828C225.539 169.315 225.399 168.909 225.119 168.61C224.839 168.302 224.466 168.148 223.999 168.148C223.682 168.148 223.392 168.223 223.131 168.372C222.879 168.512 222.66 168.722 222.473 169.002V174H220.891ZM232.302 174.14C231.63 174.14 231.023 173.981 230.482 173.664C229.94 173.337 229.511 172.903 229.194 172.362C228.876 171.811 228.718 171.191 228.718 170.5C228.718 169.809 228.867 169.193 229.166 168.652C229.464 168.111 229.87 167.681 230.384 167.364C230.906 167.037 231.485 166.874 232.12 166.874C232.773 166.874 233.347 167.033 233.842 167.35C234.346 167.667 234.738 168.097 235.018 168.638C235.307 169.179 235.452 169.8 235.452 170.5V170.878H230.272C230.328 171.261 230.449 171.601 230.636 171.9C230.832 172.189 231.079 172.418 231.378 172.586C231.686 172.754 232.017 172.838 232.372 172.838C232.698 172.838 233.006 172.782 233.296 172.67C233.594 172.549 233.842 172.385 234.038 172.18L235.074 173.118C234.644 173.473 234.206 173.734 233.758 173.902C233.319 174.061 232.834 174.14 232.302 174.14ZM230.286 169.898H233.954C233.898 169.562 233.781 169.263 233.604 169.002C233.436 168.741 233.221 168.535 232.96 168.386C232.708 168.237 232.428 168.162 232.12 168.162C231.812 168.162 231.527 168.237 231.266 168.386C231.014 168.526 230.804 168.727 230.636 168.988C230.468 169.249 230.351 169.553 230.286 169.898ZM237.065 174V166.986H238.647V168.498C238.852 167.966 239.118 167.56 239.445 167.28C239.772 167 240.15 166.86 240.579 166.86C240.719 166.869 240.84 166.883 240.943 166.902C241.046 166.911 241.153 166.944 241.265 167V168.386C241.144 168.33 241.004 168.288 240.845 168.26C240.696 168.232 240.546 168.218 240.397 168.218C240.014 168.218 239.669 168.321 239.361 168.526C239.062 168.731 238.824 169.016 238.647 169.38V174H237.065ZM245.495 174.14C244.823 174.14 244.216 173.981 243.675 173.664C243.134 173.337 242.704 172.903 242.387 172.362C242.07 171.811 241.911 171.191 241.911 170.5C241.911 169.809 242.06 169.193 242.359 168.652C242.658 168.111 243.064 167.681 243.577 167.364C244.1 167.037 244.678 166.874 245.313 166.874C245.966 166.874 246.54 167.033 247.035 167.35C247.539 167.667 247.931 168.097 248.211 168.638C248.5 169.179 248.645 169.8 248.645 170.5V170.878H243.465C243.521 171.261 243.642 171.601 243.829 171.9C244.025 172.189 244.272 172.418 244.571 172.586C244.879 172.754 245.21 172.838 245.565 172.838C245.892 172.838 246.2 172.782 246.489 172.67C246.788 172.549 247.035 172.385 247.231 172.18L248.267 173.118C247.838 173.473 247.399 173.734 246.951 173.902C246.512 174.061 246.027 174.14 245.495 174.14ZM243.479 169.898H247.147C247.091 169.562 246.974 169.263 246.797 169.002C246.629 168.741 246.414 168.535 246.153 168.386C245.901 168.237 245.621 168.162 245.313 168.162C245.005 168.162 244.72 168.237 244.459 168.386C244.207 168.526 243.997 168.727 243.829 168.988C243.661 169.249 243.544 169.553 243.479 169.898Z" fill="#87635A"/>
</svg>
