<svg width="122" height="102" viewBox="0 0 122 102" fill="none" xmlns="http://www.w3.org/2000/svg">
<path opacity="0.15" d="M5.43604 97.4062C5.43604 98.4671 10.0717 99.4845 18.3233 100.235C26.5749 100.985 37.7665 101.406 49.436 101.406C61.1056 101.406 72.2971 100.985 80.5487 100.235C88.8003 99.4845 93.436 98.4671 93.436 97.4062C93.436 96.3454 88.8003 95.328 80.5487 94.5778C72.2971 93.8277 61.1056 93.4062 49.436 93.4062C37.7665 93.4062 26.5749 93.8277 18.3233 94.5778C10.0717 95.328 5.43604 96.3454 5.43604 97.4062Z" fill="#260F08"/>
<path d="M116.983 11.2197L69.8359 16.9797L74.1559 52.3397L118.929 46.8731C119.242 46.8368 119.544 46.7388 119.819 46.5847C120.093 46.4305 120.334 46.2233 120.528 45.9752C120.721 45.727 120.863 45.4428 120.946 45.1392C121.029 44.8355 121.05 44.5184 121.009 44.2064L116.983 11.2197Z" fill="#87635A"/>
<path d="M71.5615 31.1424L118.708 25.3877L120.143 37.1664L73.0015 42.9237L71.5615 31.1424Z" fill="#AD8A85"/>
<path d="M82.6359 23.7797C82.5496 23.1561 82.2217 22.5913 81.7228 22.2073C81.224 21.8232 80.5942 21.6504 79.9693 21.7263C79.659 21.7658 79.3596 21.8662 79.0883 22.0217C78.8169 22.1773 78.579 22.385 78.3882 22.6328C78.1974 22.8806 78.0574 23.1637 77.9764 23.4658C77.8953 23.7678 77.8748 24.083 77.9159 24.393L78.2093 26.7397C78.2447 27.6346 77.9427 28.5101 77.3633 29.193C76.7838 29.8758 75.969 30.3162 75.0803 30.4268C74.1916 30.5375 73.2937 30.3104 72.5645 29.7905C71.8352 29.2707 71.3278 28.4959 71.1426 27.6197L69.8359 16.953L84.3159 0.0730139C103.569 -0.620319 118.449 3.67301 119.329 10.873L120.609 21.4063C120.632 21.5856 120.612 21.7677 120.553 21.9383C120.493 22.1089 120.395 22.2635 120.266 22.3899C120.137 22.5164 119.981 22.6114 119.809 22.6674C119.637 22.7234 119.455 22.739 119.276 22.713C118.292 22.526 117.394 22.0291 116.712 21.295C116.031 20.5609 115.603 19.6281 115.489 18.633C115.451 18.3231 115.352 18.0238 115.197 17.7522C115.043 17.4806 114.837 17.2421 114.591 17.0502C114.344 16.8582 114.062 16.7168 113.761 16.6337C113.46 16.5507 113.146 16.5278 112.836 16.5663C112.21 16.6441 111.641 16.9674 111.253 17.465C111.061 17.7114 110.92 17.9931 110.837 18.2942C110.754 18.5953 110.731 18.9098 110.769 19.2197L111.063 21.5663C111.101 21.8763 111.078 22.1907 110.995 22.4918C110.912 22.7929 110.771 23.0746 110.579 23.321C110.387 23.5674 110.148 23.7736 109.877 23.9278C109.605 24.082 109.306 24.1812 108.996 24.2197C108.686 24.2582 108.372 24.2353 108.07 24.1523C107.769 24.0693 107.488 23.9278 107.241 23.7359C106.995 23.544 106.789 23.3054 106.635 23.0338C106.48 22.7622 106.381 22.4629 106.343 22.153C106.306 21.8431 106.208 21.5435 106.056 21.2712C105.903 20.9989 105.699 20.7594 105.453 20.5663C105.208 20.3731 104.927 20.2301 104.627 20.1455C104.327 20.0609 104.013 20.0362 103.703 20.073C103.393 20.1098 103.093 20.2072 102.821 20.3598C102.549 20.5124 102.309 20.7171 102.116 20.9622C101.726 21.4573 101.548 22.0871 101.623 22.713L101.916 25.0863C102.068 26.3382 101.717 27.5991 100.939 28.5918C100.161 29.5845 99.0211 30.2276 97.7693 30.3797C96.5174 30.5317 95.2565 30.1803 94.2638 29.4026C93.2711 28.625 92.628 27.4848 92.4759 26.233L92.0493 22.6863C92.0133 22.3746 91.9151 22.0733 91.7606 21.8002C91.6061 21.5271 91.3984 21.2877 91.1498 21.0962C90.9012 20.9048 90.6167 20.7652 90.3131 20.6856C90.0096 20.606 89.6932 20.5882 89.3826 20.633C88.7541 20.713 88.1828 21.0382 87.7931 21.5377C87.4035 22.0373 87.2271 22.6706 87.3026 23.2997L87.4626 24.473C87.5404 25.0989 87.3664 25.7301 86.9788 26.2277C86.5912 26.7253 86.0219 27.0486 85.3959 27.1263C84.77 27.2041 84.1388 27.0301 83.6412 26.6425C83.1437 26.255 82.8204 25.6856 82.7426 25.0597L82.6359 23.7797Z" fill="#CAAFA7"/>
<path d="M78.0762 15.9662L112.263 11.8062" stroke="white" stroke-width="0.973958" stroke-linecap="round" stroke-linejoin="round"/>
<path d="M4.44918 38.793C3.48918 47.273 21.1958 56.233 43.9158 58.7396C66.6358 61.2463 85.9958 56.5796 86.9558 48.073L83.0092 83.5663C82.0492 92.0463 62.7692 96.8996 39.9692 94.233C17.1692 91.5663 -0.537483 82.7396 0.422517 74.1796L4.44918 38.793Z" fill="#87635A"/>
<path d="M2.82274 52.9531C1.86274 61.4065 19.5694 70.3931 42.3961 72.9798C65.2227 75.5665 84.4494 70.7931 85.4094 62.3131L84.0761 74.0998C83.1161 82.5798 63.8361 87.4331 41.0361 84.7665C18.2361 82.0998 0.529411 73.2198 1.48941 64.7398L2.82274 52.9531Z" fill="#AD8A85"/>
<path d="M57.8359 29.7795C54.5292 29.1128 51.0626 28.5528 47.4892 28.1528C23.4892 25.4861 3.0359 30.0461 2.1559 38.5261L0.0225696 57.4061C-0.0299591 57.8701 0.00941894 58.3399 0.138455 58.7887C0.267492 59.2375 0.48366 59.6565 0.774616 60.0217C1.36223 60.7594 2.2188 61.2334 3.1559 61.3395C4.093 61.4455 5.03386 61.175 5.7715 60.5874C6.50915 59.9998 6.98315 59.1432 7.08924 58.2061C7.12014 57.7233 7.24877 57.2518 7.46733 56.8202C7.68589 56.3885 7.98982 56.0058 8.3607 55.6951C8.73159 55.3844 9.16169 55.1523 9.62495 55.0128C10.0882 54.8733 10.575 54.8293 11.0557 54.8836C11.5365 54.9378 12.0012 55.0891 12.4218 55.3283C12.8423 55.5674 13.21 55.8895 13.5023 56.275C13.7947 56.6605 14.0057 57.1013 14.1227 57.5708C14.2396 58.0402 14.26 58.5285 14.1826 59.0061L13.3826 66.0994C13.2058 67.6625 13.6571 69.2317 14.6373 70.4619C15.6175 71.6922 17.0462 72.4826 18.6092 72.6595C20.1722 72.8363 21.7415 72.3849 22.9717 71.4047C24.202 70.4245 24.9924 68.9958 25.1692 67.4328C25.2753 66.4957 25.7493 65.6391 26.487 65.0515C27.2246 64.4639 28.1655 64.1934 29.1026 64.2994C30.0397 64.4055 30.8962 64.8795 31.4839 65.6172C32.0715 66.3548 32.342 67.2957 32.2359 68.2328L31.9692 70.5794C31.8978 71.5005 32.1858 72.4134 32.773 73.1267C33.3601 73.84 34.2006 74.2982 35.1182 74.4051C36.0358 74.512 36.9592 74.2594 37.6946 73.7003C38.43 73.1412 38.9203 72.3189 39.0626 71.4061L39.1959 70.2061C39.3762 68.6431 40.1701 67.2158 41.4029 66.2381C42.6356 65.2604 44.2062 64.8124 45.7692 64.9928C47.3322 65.1731 48.7596 65.967 49.7373 67.1997C50.715 68.4325 51.1629 70.0031 50.9826 71.5661L50.5826 75.0861C50.5111 76.0072 50.7992 76.9201 51.3863 77.6334C51.9734 78.3467 52.8139 78.8048 53.7316 78.9118C54.6492 79.0187 55.5725 78.7661 56.3079 78.207C57.0434 77.6478 57.5336 76.8256 57.6759 75.9128L58.6092 67.6461C58.6734 67.3585 58.8434 67.1056 59.0855 66.9376C59.3276 66.7696 59.624 66.6989 59.9159 66.7395C60.0718 66.7524 60.2234 66.7971 60.3614 66.8708C60.4993 66.9445 60.6208 67.0457 60.7182 67.1681C60.8156 67.2905 60.887 67.4315 60.9278 67.5825C60.9687 67.7335 60.9783 67.8913 60.9559 68.0461C60.827 69.5881 61.3042 71.1195 62.2861 72.3153C63.268 73.5112 64.6774 74.2772 66.2149 74.4507C67.7525 74.6243 69.2971 74.1917 70.5209 73.2448C71.7447 72.2979 72.5512 70.9113 72.7692 69.3795L73.3026 64.6595C73.4087 63.7224 73.8827 62.8658 74.6203 62.2782C75.3579 61.6906 76.2988 61.42 77.2359 61.5261C78.173 61.6322 79.0296 62.1062 79.6172 62.8439C80.2048 63.5815 80.4753 64.5224 80.3692 65.4595C80.2978 66.3805 80.5858 67.2935 81.173 68.0067C81.7601 68.72 82.6006 69.1782 83.5182 69.2851C84.4358 69.392 85.3592 69.1395 86.0946 68.5803C86.83 68.0212 87.3203 67.1989 87.4626 66.2861L89.2492 50.7395C89.2902 50.4274 89.2687 50.1103 89.186 49.8067C89.1033 49.503 88.9611 49.2188 88.7675 48.9707C88.5739 48.7225 88.3329 48.5153 88.0586 48.3612C87.7842 48.207 87.4819 48.109 87.1692 48.0728L41.1426 42.7395L57.8359 29.7795Z" fill="#CAAFA7"/>
<path d="M56.1559 44.6598L57.8359 29.7798L41.0093 42.9531L56.1559 44.6598Z" fill="#87635A"/>
<path d="M6.79591 39.0596C6.12925 44.9262 23.0359 51.6462 44.5292 54.0996C59.3026 55.7796 72.3959 55.0062 79.3826 52.4462" stroke="white" stroke-width="0.973958" stroke-linecap="round" stroke-linejoin="round"/>
</svg>
